<mxfile host="app.diagrams.net" modified="2024-03-04T23:09:54.708Z" agent="Mozilla/5.0 (Macintosh; Intel Mac OS X 10_15_7) AppleWebKit/605.1.15 (KHTML, like Gecko) Version/17.1 Safari/605.1.15" version="24.0.1" etag="nNNX4DFCdlLUftwTLhvN" type="github">
  <diagram name="ページ1" id="cMZXJNKau4EuvYAfjZsf">
    <mxGraphModel>
      <root>
        <mxCell id="0" />
        <mxCell id="1" parent="0" />
      </root>
    </mxGraphModel>
  </diagram>
</mxfile>
